<mxfile host="app.diagrams.net" agent="Mozilla/5.0 (Windows NT 10.0; Win64; x64; rv:137.0) Gecko/20100101 Firefox/137.0" version="26.2.6">
  <diagram name="Seite-1" id="_aeBQ_H9awdiNWCBettI">
    <mxGraphModel dx="1428" dy="751" grid="1" gridSize="10" guides="1" tooltips="1" connect="1" arrows="1" fold="1" page="1" pageScale="1" pageWidth="827" pageHeight="1169" math="0" shadow="0">
      <root>
        <mxCell id="0" />
        <mxCell id="1" parent="0" />
        <mxCell id="XKS4RShXIUA06M08qSKM-1" value="" style="rounded=0;whiteSpace=wrap;html=1;" vertex="1" parent="1">
          <mxGeometry x="140" y="280" width="450" height="40" as="geometry" />
        </mxCell>
        <mxCell id="XKS4RShXIUA06M08qSKM-2" value="" style="rounded=0;whiteSpace=wrap;html=1;" vertex="1" parent="1">
          <mxGeometry x="170" y="360" width="450" height="40" as="geometry" />
        </mxCell>
        <mxCell id="XKS4RShXIUA06M08qSKM-3" value="" style="rounded=0;whiteSpace=wrap;html=1;" vertex="1" parent="1">
          <mxGeometry x="200" y="440" width="450" height="40" as="geometry" />
        </mxCell>
        <mxCell id="XKS4RShXIUA06M08qSKM-4" value="PaymentInfo.java" style="rounded=0;whiteSpace=wrap;html=1;" vertex="1" parent="1">
          <mxGeometry x="210" y="260" width="310" height="30" as="geometry" />
        </mxCell>
        <mxCell id="XKS4RShXIUA06M08qSKM-5" value="User_PaymentInfo.java" style="rounded=0;whiteSpace=wrap;html=1;" vertex="1" parent="1">
          <mxGeometry x="240" y="340" width="310" height="30" as="geometry" />
        </mxCell>
        <mxCell id="XKS4RShXIUA06M08qSKM-6" value="User.java" style="rounded=0;whiteSpace=wrap;html=1;" vertex="1" parent="1">
          <mxGeometry x="270" y="420" width="310" height="30" as="geometry" />
        </mxCell>
      </root>
    </mxGraphModel>
  </diagram>
</mxfile>
